<?xml version="1.0" encoding="UTF-8" standalone="no"?>
<svg
   xmlns:ooo="http://xml.openoffice.org/svg/export"
   xmlns:dc="http://purl.org/dc/elements/1.1/"
   xmlns:cc="http://creativecommons.org/ns#"
   xmlns:rdf="http://www.w3.org/1999/02/22-rdf-syntax-ns#"
   xmlns:svg="http://www.w3.org/2000/svg"
   xmlns="http://www.w3.org/2000/svg"
   xmlns:sodipodi="http://sodipodi.sourceforge.net/DTD/sodipodi-0.dtd"
   xmlns:inkscape="http://www.inkscape.org/namespaces/inkscape"
   version="1.2"
   width="472.23947"
   height="291.77371"
   viewBox="0 0 13327.647 8234.5027"
   preserveAspectRatio="xMidYMid"
   clip-path="url(#presentation_clip_path)"
   xml:space="preserve"
   id="svg2"
   inkscape:version="0.48.4 r9939"
   sodipodi:docname="model_clf_paska.svg"
   style="fill-rule:evenodd;stroke-width:28.22200012;stroke-linejoin:round"><metadata
     id="metadata345"><rdf:RDF><cc:Work
         rdf:about=""><dc:format>image/svg+xml</dc:format><dc:type
           rdf:resource="http://purl.org/dc/dcmitype/StillImage" /></cc:Work></rdf:RDF></metadata><sodipodi:namedview
     pagecolor="#ffffff"
     bordercolor="#666666"
     borderopacity="1"
     objecttolerance="10"
     gridtolerance="10"
     guidetolerance="10"
     inkscape:pageopacity="0"
     inkscape:pageshadow="2"
     inkscape:window-width="1366"
     inkscape:window-height="744"
     id="namedview343"
     showgrid="false"
     fit-margin-top="0"
     fit-margin-left="0"
     fit-margin-right="0"
     fit-margin-bottom="0"
     inkscape:zoom="0.89702957"
     inkscape:cx="272.4467"
     inkscape:cy="204.98254"
     inkscape:window-x="0"
     inkscape:window-y="24"
     inkscape:window-maximized="1"
     inkscape:current-layer="g49" /><defs
     class="ClipPathGroup"
     id="defs4"><clipPath
       id="presentation_clip_path"
       clipPathUnits="userSpaceOnUse"><rect
         x="0"
         y="0"
         width="21000"
         height="29700"
         id="rect7" /></clipPath></defs><defs
     class="TextShapeIndex"
     id="defs9"><g
       ooo:slide="id1"
       ooo:id-list="id3 id4 id5 id6 id7 id8 id9 id10 id11 id12 id13 id14 id15"
       id="g11" /></defs><defs
     class="EmbeddedBulletChars"
     id="defs13"><g
       id="bullet-char-template(57356)"
       transform="scale(4.8828125e-4,-4.8828125e-4)"><path
         d="M 580,1141 1163,571 580,0 -4,571 580,1141 z"
         id="path16"
         inkscape:connector-curvature="0" /></g><g
       id="bullet-char-template(57354)"
       transform="scale(4.8828125e-4,-4.8828125e-4)"><path
         d="m 8,1128 1129,0 L 1137,0 8,0 8,1128 z"
         id="path19"
         inkscape:connector-curvature="0" /></g><g
       id="bullet-char-template(10146)"
       transform="scale(4.8828125e-4,-4.8828125e-4)"><path
         d="M 174,0 602,739 174,1481 1456,739 174,0 z m 1184,739 -1049,607 350,-607 699,0 z"
         id="path22"
         inkscape:connector-curvature="0" /></g><g
       id="bullet-char-template(10132)"
       transform="scale(4.8828125e-4,-4.8828125e-4)"><path
         d="M 2015,739 1276,0 717,0 l 543,543 -1086,0 0,393 1086,0 -543,545 557,0 741,-742 z"
         id="path25"
         inkscape:connector-curvature="0" /></g><g
       id="bullet-char-template(10007)"
       transform="scale(4.8828125e-4,-4.8828125e-4)"><path
         d="m 0,-2 c -7,16 -16,29 -25,39 l 381,530 c -94,256 -141,385 -141,387 0,25 13,38 40,38 9,0 21,-2 34,-5 21,4 42,12 65,25 l 27,-13 111,-251 280,301 64,-25 24,25 c 21,-10 41,-24 62,-43 C 886,937 835,863 770,784 769,783 710,716 594,584 L 774,223 c 0,-27 -21,-55 -63,-84 l 16,-20 C 717,90 699,76 672,76 641,76 570,178 457,381 L 164,-76 c -22,-34 -53,-51 -92,-51 -42,0 -63,17 -64,51 -7,9 -10,24 -10,44 0,9 1,19 2,30 z"
         id="path28"
         inkscape:connector-curvature="0" /></g><g
       id="bullet-char-template(10004)"
       transform="scale(4.8828125e-4,-4.8828125e-4)"><path
         d="M 285,-33 C 182,-33 111,30 74,156 52,228 41,333 41,471 c 0,78 14,145 41,201 34,71 87,106 158,106 53,0 88,-31 106,-94 l 23,-176 c 8,-64 28,-97 59,-98 l 735,706 c 11,11 33,17 66,17 42,0 63,-15 63,-46 l 0,-122 c 0,-36 -10,-64 -30,-84 L 442,47 C 390,-6 338,-33 285,-33 z"
         id="path31"
         inkscape:connector-curvature="0" /></g><g
       id="bullet-char-template(9679)"
       transform="scale(4.8828125e-4,-4.8828125e-4)"><path
         d="M 813,0 C 632,0 489,54 383,161 276,268 223,411 223,592 c 0,181 53,324 160,431 106,107 249,161 430,161 179,0 323,-54 432,-161 108,-107 162,-251 162,-431 0,-180 -54,-324 -162,-431 C 1136,54 992,0 813,0 z"
         id="path34"
         inkscape:connector-curvature="0" /></g><g
       id="bullet-char-template(8226)"
       transform="scale(4.8828125e-4,-4.8828125e-4)"><path
         d="m 346,457 c -73,0 -137,26 -191,78 -54,51 -81,114 -81,188 0,73 27,136 81,188 54,52 118,78 191,78 73,0 134,-26 185,-79 51,-51 77,-114 77,-187 0,-75 -25,-137 -76,-188 -50,-52 -112,-78 -186,-78 z"
         id="path37"
         inkscape:connector-curvature="0" /></g><g
       id="bullet-char-template(8211)"
       transform="scale(4.8828125e-4,-4.8828125e-4)"><path
         d="m -4,459 1139,0 0,147 -1139,0 0,-147 z"
         id="path40"
         inkscape:connector-curvature="0" /></g></defs><defs
     class="TextEmbeddedBitmaps"
     id="defs42" /><g
     id="g44"
     transform="translate(-4243.9479,-5582.0047)"><g
       id="id2"
       class="Master_Slide"><g
         id="bg-id2"
         class="Background" /><g
         id="bo-id2"
         class="BackgroundObjects" /></g></g><g
     class="SlideGroup"
     id="g49"
     transform="translate(-4243.9479,-5582.0047)"><g
       id="g56"
       class="com.sun.star.drawing.CustomShape"
       transform="translate(94.385593,-62.923729)"><g
         id="id3"><path
           style="fill:#ffd320;stroke:none"
           inkscape:connector-curvature="0"
           id="path59"
           d="m 10206,6206 c 468,0 826,357 826,825 0,468 -358,826 -826,826 -468,0 -825,-358 -825,-826 0,-468 357,-825 825,-825 z m -825,0 0,0 z m 1652,1652 0,0 z" /><path
           style="fill:none;stroke:#3465af"
           inkscape:connector-curvature="0"
           id="path61"
           d="m 10206,6206 c 468,0 826,357 826,825 0,468 -358,826 -826,826 -468,0 -825,-358 -825,-826 0,-468 357,-825 825,-825 z" /><path
           style="fill:none;stroke:#3465af"
           inkscape:connector-curvature="0"
           id="path63"
           d="m 9381,6206 0,0 z" /><path
           style="fill:none;stroke:#3465af"
           inkscape:connector-curvature="0"
           id="path65"
           d="m 11033,7858 0,0 z" /><text
           id="text67"
           class="TextShape"><tspan
             style="font-size:635px;font-weight:400;font-family:'Arial, sans-serif'"
             id="tspan69"
             font-weight="400"
             font-size="635px"
             class="TextParagraph"><tspan
               id="tspan71"
               y="7252"
               x="9995"
               class="TextPosition"><tspan
                 style="fill:#000000;stroke:none"
                 id="tspan73">X</tspan></tspan></tspan></text>
</g></g><g
       id="g75"
       class="com.sun.star.drawing.CustomShape"
       transform="translate(94.385593,-62.923729)"><g
         id="id4"><path
           style="fill:#ffd320;stroke:none"
           inkscape:connector-curvature="0"
           id="path78"
           d="m 10206,11667 c 468,0 826,357 826,825 0,468 -358,826 -826,826 -468,0 -825,-358 -825,-826 0,-468 357,-825 825,-825 z m -825,0 0,0 z m 1652,1652 0,0 z" /><path
           style="fill:none;stroke:#3465af"
           inkscape:connector-curvature="0"
           id="path80"
           d="m 10206,11667 c 468,0 826,357 826,825 0,468 -358,826 -826,826 -468,0 -825,-358 -825,-826 0,-468 357,-825 825,-825 z" /><path
           style="fill:none;stroke:#3465af"
           inkscape:connector-curvature="0"
           id="path82"
           d="m 9381,11667 0,0 z" /><path
           style="fill:none;stroke:#3465af"
           inkscape:connector-curvature="0"
           id="path84"
           d="m 11033,13319 0,0 z" /><text
           id="text86"
           class="TextShape"><tspan
             style="font-size:635px;font-weight:400;font-family:'Arial, sans-serif'"
             id="tspan88"
             font-weight="400"
             font-size="635px"
             class="TextParagraph"><tspan
               id="tspan90"
               y="12713"
               x="9995"
               class="TextPosition"><tspan
                 style="fill:#000000;stroke:none"
                 id="tspan92">Y</tspan></tspan></tspan></text>
</g></g><g
       id="g94"
       class="com.sun.star.drawing.CustomShape"
       transform="translate(94.385593,-62.923729)"><g
         id="id5"><path
           style="fill:#ff3333;stroke:none"
           inkscape:connector-curvature="0"
           id="path97"
           d="m 5634,8619 c 468,0 826,357 826,825 0,468 -358,826 -826,826 -468,0 -825,-358 -825,-826 0,-468 357,-825 825,-825 z m -825,0 0,0 z m 1652,1652 0,0 z" /><path
           style="fill:none;stroke:#3465af"
           inkscape:connector-curvature="0"
           id="path99"
           d="m 5634,8619 c 468,0 826,357 826,825 0,468 -358,826 -826,826 -468,0 -825,-358 -825,-826 0,-468 357,-825 825,-825 z" /><path
           style="fill:none;stroke:#3465af"
           inkscape:connector-curvature="0"
           id="path101"
           d="m 4809,8619 0,0 z" /><path
           style="fill:none;stroke:#3465af"
           inkscape:connector-curvature="0"
           id="path103"
           d="m 6461,10271 0,0 z" /><text
           id="text105"
           class="TextShape"><tspan
             style="font-size:635px;font-weight:400;font-family:'Arial, sans-serif'"
             id="tspan107"
             font-weight="400"
             font-size="635px"
             class="TextParagraph"><tspan
               id="tspan109"
               y="9665"
               x="5370"
               class="TextPosition"><tspan
                 style="fill:#000000;stroke:none"
                 id="tspan111">M</tspan></tspan></tspan></text>
</g></g><g
       id="g113"
       class="com.sun.star.drawing.ConnectorShape"
       transform="translate(94.385593,-62.923729)"><g
         id="id6"><path
           style="fill:none;stroke:#000000"
           inkscape:connector-curvature="0"
           id="path116"
           d="m 10792,7617 0,3862" /><path
           style="fill:#000000;stroke:none"
           inkscape:connector-curvature="0"
           id="path118"
           d="m 10792,11909 150,-450 -300,0 150,450 z" /></g></g><g
       id="g120"
       class="com.sun.star.drawing.ConnectorShape"
       transform="translate(94.385593,-62.923729)"><g
         id="id7"><path
           style="fill:none;stroke:#000000"
           inkscape:connector-curvature="0"
           id="path123"
           d="m 9623,11909 0,-3862" /><path
           style="fill:#000000;stroke:none"
           inkscape:connector-curvature="0"
           id="path125"
           d="m 9623,7617 -150,450 300,0 -150,-450 z" /></g></g><g
       id="g127"
       class="com.sun.star.drawing.ConnectorShape"
       transform="translate(94.385593,-62.923729)"><g
         id="id8"><path
           style="fill:none;stroke:#000000"
           inkscape:connector-curvature="0"
           id="path130"
           d="m 9623,6448 c -2658,0 -3700,583 -3945,1749" /><path
           style="fill:#000000;stroke:none"
           inkscape:connector-curvature="0"
           id="path132"
           d="m 5636,8620 196,-432 -298,-31 102,463 z" /></g></g><g
       id="g134"
       class="com.sun.star.drawing.ConnectorShape"
       transform="translate(94.385593,-62.923729)"><g
         id="id9"><path
           style="fill:none;stroke:#000000"
           inkscape:connector-curvature="0"
           id="path137"
           d="m 5636,10271 c 0,1872 1184,2699 3553,2798" /><path
           style="fill:#000000;stroke:none"
           inkscape:connector-curvature="0"
           id="path139"
           d="m 9623,13078 -447,-160 -6,300 453,-140 z" /></g></g><g
       id="g141"
       class="com.sun.star.drawing.ConnectorShape"
       transform="translate(94.385593,-62.923729)"><g
         id="id10"><path
           style="fill:none;stroke:#000000"
           inkscape:connector-curvature="0"
           id="path144"
           d="m 9382,12494 c -2191,0 -797,-2160 -2723,-2435" /><path
           style="fill:#000000;stroke:none"
           inkscape:connector-curvature="0"
           id="path146"
           d="m 6220,10030 439,180 20,-299 -459,119 z" /></g></g><g
       id="g148"
       class="com.sun.star.drawing.ConnectorShape"
       transform="translate(94.385593,-62.923729)"><g
         id="id11"><path
           style="fill:none;stroke:#000000"
           inkscape:connector-curvature="0"
           id="path151"
           d="m 6220,8861 c 2551,0 1187,-1562 2726,-1798" /><path
           style="fill:#000000;stroke:none"
           inkscape:connector-curvature="0"
           id="path153"
           d="m 9382,7033 -460,-117 22,299 438,-182 z" /></g></g><g
       id="g155"
       class="com.sun.star.drawing.ConnectorShape"
       transform="translate(94.385593,-62.923729)"><g
         id="id12"><path
           style="fill:none;stroke:#000000"
           inkscape:connector-curvature="0"
           id="path158"
           d="m 5051,10030 c -1114,0 -1090,-850 -420,-1100" /><path
           style="fill:#000000;stroke:none"
           inkscape:connector-curvature="0"
           id="path160"
           d="m 5051,8861 -469,-71 51,296 418,-225 z" /></g></g><g
       id="g162"
       class="com.sun.star.drawing.ConnectorShape"
       transform="translate(94.385593,-62.923729)"><g
         id="id13"><path
           style="fill:none;stroke:#000000"
           inkscape:connector-curvature="0"
           id="path165"
           d="m 10208,13319 c 0,751 663,626 1057,232 394,-394 440,-743 176,-948" /><path
           style="fill:#000000;stroke:none"
           inkscape:connector-curvature="0"
           id="path167"
           d="m 11033,12494 391,269 83,-289 -474,20 z" /></g></g><g
       id="g169"
       class="com.sun.star.drawing.ConnectorShape"
       transform="translate(94.385593,-62.923729)"><g
         id="id14"><path
           style="fill:none;stroke:#000000"
           inkscape:connector-curvature="0"
           id="path172"
           d="m 10208,6207 c 0,-753 663,-628 1057,-233 394,395 440,744 176,950" /><path
           style="fill:#000000;stroke:none"
           inkscape:connector-curvature="0"
           id="path174"
           d="m 11033,7033 474,19 -83,-288 -391,269 z" /></g></g><g
       id="g176"
       class="com.sun.star.drawing.TextShape"
       transform="translate(9784.6398,-5757.5212)"><g
         id="id15"><text
           id="text179"
           class="TextShape"><tspan
             style="font-size:635px;font-weight:400;font-family:'Arial, sans-serif'"
             id="tspan181"
             font-weight="400"
             font-size="635px"
             class="TextParagraph"><tspan
               id="tspan183"
               y="14528"
               x="2520"
               class="TextPosition"><tspan
                 style="fill:#000000;stroke:none"
                 id="tspan185">X: X</tspan></tspan><tspan
               id="tspan187"
               y="14738"
               x="3722"
               class="TextPosition"><tspan
                 style="font-size:368px;fill:#000000;stroke:none"
                 id="tspan189"
                 font-size="368px">1</tspan></tspan><tspan
               id="tspan191"
               y="14528"
               x="3925"
               class="TextPosition"><tspan
                 style="fill:#000000;stroke:none"
                 id="tspan193">X</tspan></tspan><tspan
               id="tspan195"
               y="14738"
               class="TextPosition"><tspan
                 style="font-size:368px;fill:#000000;stroke:none"
                 id="tspan197"
                 font-size="368px">2</tspan></tspan><tspan
               id="tspan199"
               y="14528"
               class="TextPosition"><tspan
                 style="fill:#000000;stroke:none"
                 id="tspan201">X</tspan></tspan><tspan
               id="tspan203"
               y="14738"
               class="TextPosition"><tspan
                 style="font-size:368px;fill:#000000;stroke:none"
                 id="tspan205"
                 font-size="368px">3</tspan></tspan><tspan
               id="tspan207"
               y="14528"
               class="TextPosition"><tspan
                 style="fill:#000000;stroke:none"
                 id="tspan209">X</tspan></tspan><tspan
               id="tspan211"
               y="14738"
               class="TextPosition"><tspan
                 style="font-size:368px;fill:#000000;stroke:none"
                 id="tspan213"
                 font-size="368px">4</tspan></tspan><tspan
               id="tspan215"
               y="14528"
               class="TextPosition"><tspan
                 style="fill:#000000;stroke:none"
                 id="tspan217">X</tspan></tspan><tspan
               id="tspan219"
               y="14738"
               class="TextPosition"><tspan
                 style="font-size:368px;fill:#000000;stroke:none"
                 id="tspan221"
                 font-size="368px">5</tspan></tspan><tspan
               id="tspan223"
               y="14528"
               class="TextPosition"><tspan
                 style="fill:#000000;stroke:none"
                 id="tspan225">X</tspan></tspan><tspan
               id="tspan227"
               y="14738"
               class="TextPosition"><tspan
                 style="font-size:368px;fill:#000000;stroke:none"
                 id="tspan229"
                 font-size="368px">6</tspan></tspan><tspan
               id="tspan231"
               y="14528"
               class="TextPosition"><tspan
                 style="fill:#000000;stroke:none"
                 id="tspan233">...</tspan></tspan></tspan><tspan
             style="font-size:635px;font-weight:400;font-family:'Arial, sans-serif'"
             id="tspan235"
             font-weight="400"
             font-size="635px"
             class="TextParagraph"><tspan
               id="tspan237"
               y="15391"
               x="2520"
               class="TextPosition"><tspan
                 style="fill:#000000;stroke:none"
                 id="tspan239">Y: Y</tspan></tspan><tspan
               id="tspan241"
               y="15601"
               x="3671"
               class="TextPosition"><tspan
                 style="font-size:368px;fill:#000000;stroke:none"
                 id="tspan243"
                 font-size="368px">1</tspan></tspan><tspan
               id="tspan245"
               y="15391"
               x="3874"
               class="TextPosition"><tspan
                 style="fill:#000000;stroke:none"
                 id="tspan247">Y</tspan></tspan><tspan
               id="tspan249"
               y="15601"
               class="TextPosition"><tspan
                 style="font-size:368px;fill:#000000;stroke:none"
                 id="tspan251"
                 font-size="368px">2</tspan></tspan><tspan
               id="tspan253"
               y="15391"
               class="TextPosition"><tspan
                 style="fill:#000000;stroke:none"
                 id="tspan255">Y</tspan></tspan><tspan
               id="tspan257"
               y="15601"
               class="TextPosition"><tspan
                 style="font-size:368px;fill:#000000;stroke:none"
                 id="tspan259"
                 font-size="368px">3</tspan></tspan><tspan
               id="tspan261"
               y="15391"
               class="TextPosition"><tspan
                 style="fill:#000000;stroke:none"
                 id="tspan263">Y</tspan></tspan><tspan
               id="tspan265"
               y="15601"
               class="TextPosition"><tspan
                 style="font-size:368px;fill:#000000;stroke:none"
                 id="tspan267"
                 font-size="368px">4</tspan></tspan><tspan
               id="tspan269"
               y="15391"
               class="TextPosition"><tspan
                 style="fill:#000000;stroke:none"
                 id="tspan271">Y</tspan></tspan><tspan
               id="tspan273"
               y="15601"
               class="TextPosition"><tspan
                 style="font-size:368px;fill:#000000;stroke:none"
                 id="tspan275"
                 font-size="368px">5</tspan></tspan><tspan
               id="tspan277"
               y="15391"
               class="TextPosition"><tspan
                 style="fill:#000000;stroke:none"
                 id="tspan279">Y</tspan></tspan><tspan
               id="tspan281"
               y="15601"
               class="TextPosition"><tspan
                 style="font-size:368px;fill:#000000;stroke:none"
                 id="tspan283"
                 font-size="368px">6</tspan></tspan><tspan
               id="tspan285"
               y="15391"
               class="TextPosition"><tspan
                 style="fill:#000000;stroke:none"
                 id="tspan287">...</tspan></tspan></tspan><tspan
             style="font-size:635px;font-weight:400;font-family:'Arial, sans-serif'"
             id="tspan289"
             font-weight="400"
             font-size="635px"
             class="TextParagraph"><tspan
               id="tspan291"
               y="16254"
               x="2520"
               class="TextPosition"><tspan
                 style="fill:#000000;stroke:none"
                 id="tspan293">C: C</tspan></tspan><tspan
               id="tspan295"
               y="16464"
               class="TextPosition"><tspan
                 style="font-size:368px;fill:#000000;stroke:none"
                 id="tspan297"
                 font-size="368px">1</tspan></tspan><tspan
               id="tspan299"
               y="16254"
               class="TextPosition"><tspan
                 style="fill:#000000;stroke:none"
                 id="tspan301">C</tspan></tspan><tspan
               id="tspan303"
               y="16464"
               class="TextPosition"><tspan
                 style="font-size:368px;fill:#000000;stroke:none"
                 id="tspan305"
                 font-size="368px">2</tspan></tspan><tspan
               id="tspan307"
               y="16254"
               class="TextPosition"><tspan
                 style="fill:#000000;stroke:none"
                 id="tspan309">C</tspan></tspan><tspan
               id="tspan311"
               y="16464"
               class="TextPosition"><tspan
                 style="font-size:368px;fill:#000000;stroke:none"
                 id="tspan313"
                 font-size="368px">3</tspan></tspan><tspan
               id="tspan315"
               y="16254"
               class="TextPosition"><tspan
                 style="fill:#000000;stroke:none"
                 id="tspan317">C</tspan></tspan><tspan
               id="tspan319"
               y="16464"
               class="TextPosition"><tspan
                 style="font-size:368px;fill:#000000;stroke:none"
                 id="tspan321"
                 font-size="368px">4</tspan></tspan><tspan
               id="tspan323"
               y="16254"
               class="TextPosition"><tspan
                 style="fill:#000000;stroke:none"
                 id="tspan325">C</tspan></tspan><tspan
               id="tspan327"
               y="16464"
               class="TextPosition"><tspan
                 style="font-size:368px;fill:#000000;stroke:none"
                 id="tspan329"
                 font-size="368px">5</tspan></tspan><tspan
               id="tspan331"
               y="16254"
               class="TextPosition"><tspan
                 style="fill:#000000;stroke:none"
                 id="tspan333">C</tspan></tspan><tspan
               id="tspan335"
               y="16464"
               class="TextPosition"><tspan
                 style="font-size:368px;fill:#000000;stroke:none"
                 id="tspan337"
                 font-size="368px">6</tspan></tspan><tspan
               id="tspan339"
               y="16254"
               class="TextPosition"><tspan
                 style="fill:#000000;stroke:none"
                 id="tspan341">...</tspan></tspan></tspan></text>
</g></g></g></svg>