<?xml version="1.0" encoding="UTF-8" standalone="no"?>
<svg
   xmlns:ooo="http://xml.openoffice.org/svg/export"
   xmlns:dc="http://purl.org/dc/elements/1.1/"
   xmlns:cc="http://creativecommons.org/ns#"
   xmlns:rdf="http://www.w3.org/1999/02/22-rdf-syntax-ns#"
   xmlns:svg="http://www.w3.org/2000/svg"
   xmlns="http://www.w3.org/2000/svg"
   xmlns:sodipodi="http://sodipodi.sourceforge.net/DTD/sodipodi-0.dtd"
   xmlns:inkscape="http://www.inkscape.org/namespaces/inkscape"
   version="1.2"
   width="210mm"
   height="297mm"
   viewBox="0 0 21000 29700"
   preserveAspectRatio="xMidYMid"
   fill-rule="evenodd"
   clip-path="url(#presentation_clip_path)"
   stroke-width="28.222"
   stroke-linejoin="round"
   xml:space="preserve"
   id="svg2"
   inkscape:version="0.48.4 r9939"
   sodipodi:docname="zakladny_model.svg"><metadata
     id="metadata363"><rdf:RDF><cc:Work
         rdf:about=""><dc:format>image/svg+xml</dc:format><dc:type
           rdf:resource="http://purl.org/dc/dcmitype/StillImage" /><dc:title></dc:title></cc:Work></rdf:RDF></metadata><sodipodi:namedview
     pagecolor="#ffffff"
     bordercolor="#666666"
     borderopacity="1"
     objecttolerance="10"
     gridtolerance="10"
     guidetolerance="10"
     inkscape:pageopacity="0"
     inkscape:pageshadow="2"
     inkscape:window-width="1920"
     inkscape:window-height="1056"
     id="namedview361"
     showgrid="false"
     inkscape:zoom="0.63429569"
     inkscape:cx="376.09456"
     inkscape:cy="530.91421"
     inkscape:window-x="1366"
     inkscape:window-y="24"
     inkscape:window-maximized="1"
     inkscape:current-layer="svg2" /><defs
     class="ClipPathGroup"
     id="defs4"><clipPath
       id="presentation_clip_path"
       clipPathUnits="userSpaceOnUse"><rect
         x="0"
         y="0"
         width="21000"
         height="29700"
         id="rect7" /></clipPath></defs><defs
     class="TextShapeIndex"
     id="defs9"><g
       ooo:slide="id1"
       ooo:id-list="id3 id4 id5 id6 id7 id8 id9 id10 id11 id12 id13 id14 id15 id16 id17 id18 id19 id20 id21"
       id="g11" /></defs><defs
     class="EmbeddedBulletChars"
     id="defs13"><g
       id="bullet-char-template(57356)"
       transform="scale(0.00048828125,-0.00048828125)"><path
         d="M 580,1141 L 1163,571 580,0 -4,571 580,1141 Z"
         id="path16" /></g><g
       id="bullet-char-template(57354)"
       transform="scale(0.00048828125,-0.00048828125)"><path
         d="M 8,1128 L 1137,1128 1137,0 8,0 8,1128 Z"
         id="path19" /></g><g
       id="bullet-char-template(10146)"
       transform="scale(0.00048828125,-0.00048828125)"><path
         d="M 174,0 L 602,739 174,1481 1456,739 174,0 Z M 1358,739 L 309,1346 659,739 1358,739 Z"
         id="path22" /></g><g
       id="bullet-char-template(10132)"
       transform="scale(0.00048828125,-0.00048828125)"><path
         d="M 2015,739 L 1276,0 717,0 1260,543 174,543 174,936 1260,936 717,1481 1274,1481 2015,739 Z"
         id="path25" /></g><g
       id="bullet-char-template(10007)"
       transform="scale(0.00048828125,-0.00048828125)"><path
         d="M 0,-2 C -7,14 -16,27 -25,37 L 356,567 C 262,823 215,952 215,954 215,979 228,992 255,992 264,992 276,990 289,987 310,991 331,999 354,1012 L 381,999 492,748 772,1049 836,1024 860,1049 C 881,1039 901,1025 922,1006 886,937 835,863 770,784 769,783 710,716 594,584 L 774,223 C 774,196 753,168 711,139 L 727,119 C 717,90 699,76 672,76 641,76 570,178 457,381 L 164,-76 C 142,-110 111,-127 72,-127 30,-127 9,-110 8,-76 1,-67 -2,-52 -2,-32 -2,-23 -1,-13 0,-2 Z"
         id="path28" /></g><g
       id="bullet-char-template(10004)"
       transform="scale(0.00048828125,-0.00048828125)"><path
         d="M 285,-33 C 182,-33 111,30 74,156 52,228 41,333 41,471 41,549 55,616 82,672 116,743 169,778 240,778 293,778 328,747 346,684 L 369,508 C 377,444 397,411 428,410 L 1163,1116 C 1174,1127 1196,1133 1229,1133 1271,1133 1292,1118 1292,1087 L 1292,965 C 1292,929 1282,901 1262,881 L 442,47 C 390,-6 338,-33 285,-33 Z"
         id="path31" /></g><g
       id="bullet-char-template(9679)"
       transform="scale(0.00048828125,-0.00048828125)"><path
         d="M 813,0 C 632,0 489,54 383,161 276,268 223,411 223,592 223,773 276,916 383,1023 489,1130 632,1184 813,1184 992,1184 1136,1130 1245,1023 1353,916 1407,772 1407,592 1407,412 1353,268 1245,161 1136,54 992,0 813,0 Z"
         id="path34" /></g><g
       id="bullet-char-template(8226)"
       transform="scale(0.00048828125,-0.00048828125)"><path
         d="M 346,457 C 273,457 209,483 155,535 101,586 74,649 74,723 74,796 101,859 155,911 209,963 273,989 346,989 419,989 480,963 531,910 582,859 608,796 608,723 608,648 583,586 532,535 482,483 420,457 346,457 Z"
         id="path37" /></g><g
       id="bullet-char-template(8211)"
       transform="scale(0.00048828125,-0.00048828125)"><path
         d="M -4,459 L 1135,459 1135,606 -4,606 -4,459 Z"
         id="path40" /></g></defs><defs
     class="TextEmbeddedBitmaps"
     id="defs42" /><g
     id="g44"><g
       id="id2"
       class="Master_Slide"><g
         id="bg-id2"
         class="Background" /><g
         id="bo-id2"
         class="BackgroundObjects" /></g></g><g
     class="SlideGroup"
     id="g49"><g
       id="g51"><g
         id="id1"
         class="Slide"
         clip-path="url(#presentation_clip_path)"><g
           class="Page"
           id="g54"><g
             class="com.sun.star.drawing.CustomShape"
             id="g56"><g
               id="id3"><path
                 fill="rgb(255,211,32)"
                 stroke="none"
                 d="M 10206,6206 C 10674,6206 11032,6563 11032,7031 11032,7499 10674,7857 10206,7857 9738,7857 9381,7499 9381,7031 9381,6563 9738,6206 10206,6206 Z M 9381,6206 L 9381,6206 Z M 11033,7858 L 11033,7858 Z"
                 id="path59" /><path
                 fill="none"
                 stroke="rgb(52,101,175)"
                 d="M 10206,6206 C 10674,6206 11032,6563 11032,7031 11032,7499 10674,7857 10206,7857 9738,7857 9381,7499 9381,7031 9381,6563 9738,6206 10206,6206 Z"
                 id="path61" /><path
                 fill="none"
                 stroke="rgb(52,101,175)"
                 d="M 9381,6206 L 9381,6206 Z"
                 id="path63" /><path
                 fill="none"
                 stroke="rgb(52,101,175)"
                 d="M 11033,7858 L 11033,7858 Z"
                 id="path65" /><text
                 class="TextShape"
                 id="text67"><tspan
                   class="TextParagraph"
                   font-family="Arial, sans-serif"
                   font-size="635px"
                   font-weight="400"
                   id="tspan69"><tspan
                     class="TextPosition"
                     x="9995"
                     y="7252"
                     id="tspan71"><tspan
                       fill="rgb(0,0,0)"
                       stroke="none"
                       id="tspan73">X</tspan></tspan></tspan></text>
</g></g><g
             class="com.sun.star.drawing.CustomShape"
             id="g75"><g
               id="id4"><path
                 fill="rgb(255,211,32)"
                 stroke="none"
                 d="M 10206,11667 C 10674,11667 11032,12024 11032,12492 11032,12960 10674,13318 10206,13318 9738,13318 9381,12960 9381,12492 9381,12024 9738,11667 10206,11667 Z M 9381,11667 L 9381,11667 Z M 11033,13319 L 11033,13319 Z"
                 id="path78" /><path
                 fill="none"
                 stroke="rgb(52,101,175)"
                 d="M 10206,11667 C 10674,11667 11032,12024 11032,12492 11032,12960 10674,13318 10206,13318 9738,13318 9381,12960 9381,12492 9381,12024 9738,11667 10206,11667 Z"
                 id="path80" /><path
                 fill="none"
                 stroke="rgb(52,101,175)"
                 d="M 9381,11667 L 9381,11667 Z"
                 id="path82" /><path
                 fill="none"
                 stroke="rgb(52,101,175)"
                 d="M 11033,13319 L 11033,13319 Z"
                 id="path84" /><text
                 class="TextShape"
                 id="text86"><tspan
                   class="TextParagraph"
                   font-family="Arial, sans-serif"
                   font-size="635px"
                   font-weight="400"
                   id="tspan88"><tspan
                     class="TextPosition"
                     x="9995"
                     y="12713"
                     id="tspan90"><tspan
                       fill="rgb(0,0,0)"
                       stroke="none"
                       id="tspan92">Y</tspan></tspan></tspan></text>
</g></g><g
             class="com.sun.star.drawing.CustomShape"
             id="g94"><g
               id="id5"><path
                 fill="rgb(255,51,51)"
                 stroke="none"
                 d="M 5634,8619 C 6102,8619 6460,8976 6460,9444 6460,9912 6102,10270 5634,10270 5166,10270 4809,9912 4809,9444 4809,8976 5166,8619 5634,8619 Z M 4809,8619 L 4809,8619 Z M 6461,10271 L 6461,10271 Z"
                 id="path97" /><path
                 fill="none"
                 stroke="rgb(52,101,175)"
                 d="M 5634,8619 C 6102,8619 6460,8976 6460,9444 6460,9912 6102,10270 5634,10270 5166,10270 4809,9912 4809,9444 4809,8976 5166,8619 5634,8619 Z"
                 id="path99" /><path
                 fill="none"
                 stroke="rgb(52,101,175)"
                 d="M 4809,8619 L 4809,8619 Z"
                 id="path101" /><path
                 fill="none"
                 stroke="rgb(52,101,175)"
                 d="M 6461,10271 L 6461,10271 Z"
                 id="path103" /><text
                 class="TextShape"
                 id="text105"><tspan
                   class="TextParagraph"
                   font-family="Arial, sans-serif"
                   font-size="635px"
                   font-weight="400"
                   id="tspan107"><tspan
                     class="TextPosition"
                     x="5370"
                     y="9665"
                     id="tspan109"><tspan
                       fill="rgb(0,0,0)"
                       stroke="none"
                       id="tspan111">M</tspan></tspan></tspan></text>
</g></g><g
             class="com.sun.star.drawing.ConnectorShape"
             id="g113"><g
               id="id6"><path
                 fill="none"
                 stroke="rgb(0,0,0)"
                 d="M 10792,7617 L 10792,11479"
                 id="path116" /><path
                 fill="rgb(0,0,0)"
                 stroke="none"
                 d="M 10792,11909 L 10942,11459 10642,11459 10792,11909 Z"
                 id="path118" /></g></g><g
             class="com.sun.star.drawing.ConnectorShape"
             id="g120"><g
               id="id7"><path
                 fill="none"
                 stroke="rgb(0,0,0)"
                 d="M 9623,11909 L 9623,8047"
                 id="path123" /><path
                 fill="rgb(0,0,0)"
                 stroke="none"
                 d="M 9623,7617 L 9473,8067 9773,8067 9623,7617 Z"
                 id="path125" /></g></g><g
             class="com.sun.star.drawing.ConnectorShape"
             id="g127"><g
               id="id8"><path
                 fill="none"
                 stroke="rgb(0,0,0)"
                 d="M 9623,6448 C 6965,6448 5923,7031 5678,8197"
                 id="path130" /><path
                 fill="rgb(0,0,0)"
                 stroke="none"
                 d="M 5636,8620 L 5832,8188 5534,8157 5636,8620 Z"
                 id="path132" /></g></g><g
             class="com.sun.star.drawing.ConnectorShape"
             id="g134"><g
               id="id9"><path
                 fill="none"
                 stroke="rgb(0,0,0)"
                 d="M 5636,10271 C 5636,12143 6820,12970 9189,13069"
                 id="path137" /><path
                 fill="rgb(0,0,0)"
                 stroke="none"
                 d="M 9623,13078 L 9176,12918 9170,13218 9623,13078 Z"
                 id="path139" /></g></g><g
             class="com.sun.star.drawing.ConnectorShape"
             id="g141"><g
               id="id10"><path
                 fill="none"
                 stroke="rgb(0,0,0)"
                 d="M 9382,12494 C 7191,12494 8585,10334 6659,10059"
                 id="path144" /><path
                 fill="rgb(0,0,0)"
                 stroke="none"
                 d="M 6220,10030 L 6659,10210 6679,9911 6220,10030 Z"
                 id="path146" /></g></g><g
             class="com.sun.star.drawing.ConnectorShape"
             id="g148"><g
               id="id11"><path
                 fill="none"
                 stroke="rgb(0,0,0)"
                 d="M 6220,8861 C 8771,8861 7407,7299 8946,7063"
                 id="path151" /><path
                 fill="rgb(0,0,0)"
                 stroke="none"
                 d="M 9382,7033 L 8922,6916 8944,7215 9382,7033 Z"
                 id="path153" /></g></g><g
             class="com.sun.star.drawing.ConnectorShape"
             id="g155"><g
               id="id12"><path
                 fill="none"
                 stroke="rgb(0,0,0)"
                 d="M 5051,10030 C 3937,10030 3961,9180 4631,8930"
                 id="path158" /><path
                 fill="rgb(0,0,0)"
                 stroke="none"
                 d="M 5051,8861 L 4582,8790 4633,9086 5051,8861 Z"
                 id="path160" /></g></g><g
             class="com.sun.star.drawing.ConnectorShape"
             id="g162"><g
               id="id13"><path
                 fill="none"
                 stroke="rgb(0,0,0)"
                 d="M 10208,13319 C 10208,14070 10871,13945 11265,13551 11659,13157 11705,12808 11441,12603"
                 id="path165" /><path
                 fill="rgb(0,0,0)"
                 stroke="none"
                 d="M 11033,12494 L 11424,12763 11507,12474 11033,12494 Z"
                 id="path167" /></g></g><g
             class="com.sun.star.drawing.ConnectorShape"
             id="g169"><g
               id="id14"><path
                 fill="none"
                 stroke="rgb(0,0,0)"
                 d="M 10208,6207 C 10208,5454 10871,5579 11265,5974 11659,6369 11705,6718 11441,6924"
                 id="path172" /><path
                 fill="rgb(0,0,0)"
                 stroke="none"
                 d="M 11033,7033 L 11507,7052 11424,6764 11033,7033 Z"
                 id="path174" /></g></g><g
             class="com.sun.star.drawing.CustomShape"
             id="g176"><g
               id="id15"><path
                 fill="rgb(114,159,207)"
                 stroke="none"
                 d="M 10180,15658 L 9735,15658 9735,14769 10624,14769 10624,15658 10180,15658 Z"
                 id="path179" /><path
                 fill="none"
                 stroke="rgb(52,101,175)"
                 d="M 10180,15658 L 9735,15658 9735,14769 10624,14769 10624,15658 10180,15658 Z"
                 id="path181" /><text
                 class="TextShape"
                 id="text183"><tspan
                   class="TextParagraph"
                   font-family="Arial, sans-serif"
                   font-size="368px"
                   font-weight="700"
                   id="tspan185"><tspan
                     class="TextPosition"
                     x="9900"
                     y="15358"
                     id="tspan187"><tspan
                       font-size="635px"
                       font-weight="400"
                       fill="rgb(0,0,0)"
                       stroke="none"
                       id="tspan189">C</tspan></tspan><tspan
                     class="TextPosition"
                     y="15568"
                     id="tspan191"><tspan
                       fill="rgb(0,0,0)"
                       stroke="none"
                       id="tspan193">i</tspan></tspan></tspan></text>
</g></g><g
             class="com.sun.star.drawing.CustomShape"
             id="g195"><g
               id="id16"><path
                 fill="rgb(114,159,207)"
                 stroke="none"
                 d="M 4458,7604 L 4013,7604 4013,6715 4902,6715 4902,7604 4458,7604 Z"
                 id="path198" /><path
                 fill="none"
                 stroke="rgb(52,101,175)"
                 d="M 4458,7604 L 4013,7604 4013,6715 4902,6715 4902,7604 4458,7604 Z"
                 id="path200" /><text
                 class="TextShape"
                 id="text202"><tspan
                   class="TextParagraph"
                   font-family="Arial, sans-serif"
                   font-size="368px"
                   font-weight="700"
                   id="tspan204"><tspan
                     class="TextPosition"
                     x="4066"
                     y="7304"
                     id="tspan206"><tspan
                       font-size="635px"
                       font-weight="400"
                       fill="rgb(0,0,0)"
                       stroke="none"
                       id="tspan208">C</tspan></tspan><tspan
                     class="TextPosition"
                     y="7514"
                     id="tspan210"><tspan
                       fill="rgb(0,0,0)"
                       stroke="none"
                       id="tspan212">m</tspan></tspan></tspan></text>
</g></g><g
             class="com.sun.star.drawing.CustomShape"
             id="g214"><g
               id="id17"><path
                 fill="rgb(114,159,207)"
                 stroke="none"
                 d="M 10188,4936 L 9743,4936 9743,4047 10632,4047 10632,4936 10188,4936 Z"
                 id="path217" /><path
                 fill="none"
                 stroke="rgb(52,101,175)"
                 d="M 10188,4936 L 9743,4936 9743,4047 10632,4047 10632,4936 10188,4936 Z"
                 id="path219" /><text
                 class="TextShape"
                 id="text221"><tspan
                   class="TextParagraph"
                   font-family="Arial, sans-serif"
                   font-size="368px"
                   font-weight="700"
                   id="tspan223"><tspan
                     class="TextPosition"
                     x="9908"
                     y="4636"
                     id="tspan225"><tspan
                       font-size="635px"
                       font-weight="400"
                       fill="rgb(0,0,0)"
                       stroke="none"
                       id="tspan227">C</tspan></tspan><tspan
                     class="TextPosition"
                     y="4846"
                     id="tspan229"><tspan
                       fill="rgb(0,0,0)"
                       stroke="none"
                       id="tspan231">i</tspan></tspan></tspan></text>
</g></g><g
             class="com.sun.star.drawing.ConnectorShape"
             id="g233"><g
               id="id18"><path
                 fill="none"
                 stroke="rgb(0,0,0)"
                 d="M 4458,7605 L 5636,8620"
                 id="path236" /></g></g><g
             class="com.sun.star.drawing.ConnectorShape"
             id="g238"><g
               id="id19"><path
                 fill="none"
                 stroke="rgb(0,0,0)"
                 d="M 10188,4937 L 10208,6207"
                 id="path241" /></g></g><g
             class="com.sun.star.drawing.ConnectorShape"
             id="g243"><g
               id="id20"><path
                 fill="none"
                 stroke="rgb(0,0,0)"
                 d="M 10180,14770 L 10208,13319"
                 id="path246" /></g></g><g
             class="com.sun.star.drawing.TextShape"
             id="g248"><g
               id="id21"><text
                 class="TextShape"
                 id="text251"><tspan
                   class="TextParagraph"
                   font-family="Arial, sans-serif"
                   font-size="635px"
                   font-weight="400"
                   id="tspan253"><tspan
                     class="TextPosition"
                     x="2520"
                     y="14528"
                     id="tspan255"><tspan
                       fill="rgb(0,0,0)"
                       stroke="none"
                       id="tspan257">X: X</tspan></tspan><tspan
                     class="TextPosition"
                     x="3722"
                     y="14738"
                     id="tspan259"><tspan
                       font-size="368px"
                       fill="rgb(0,0,0)"
                       stroke="none"
                       id="tspan261">1</tspan></tspan><tspan
                     class="TextPosition"
                     x="3925"
                     y="14528"
                     id="tspan263"><tspan
                       fill="rgb(0,0,0)"
                       stroke="none"
                       id="tspan265">X</tspan></tspan><tspan
                     class="TextPosition"
                     y="14738"
                     id="tspan267"><tspan
                       font-size="368px"
                       fill="rgb(0,0,0)"
                       stroke="none"
                       id="tspan269">2</tspan></tspan><tspan
                     class="TextPosition"
                     y="14528"
                     id="tspan271"><tspan
                       fill="rgb(0,0,0)"
                       stroke="none"
                       id="tspan273">X</tspan></tspan><tspan
                     class="TextPosition"
                     y="14738"
                     id="tspan275"><tspan
                       font-size="368px"
                       fill="rgb(0,0,0)"
                       stroke="none"
                       id="tspan277">3</tspan></tspan><tspan
                     class="TextPosition"
                     y="14528"
                     id="tspan279"><tspan
                       fill="rgb(0,0,0)"
                       stroke="none"
                       id="tspan281">X</tspan></tspan><tspan
                     class="TextPosition"
                     y="14738"
                     id="tspan283"><tspan
                       font-size="368px"
                       fill="rgb(0,0,0)"
                       stroke="none"
                       id="tspan285">4</tspan></tspan><tspan
                     class="TextPosition"
                     y="14528"
                     id="tspan287"><tspan
                       fill="rgb(0,0,0)"
                       stroke="none"
                       id="tspan289">X</tspan></tspan><tspan
                     class="TextPosition"
                     y="14738"
                     id="tspan291"><tspan
                       font-size="368px"
                       fill="rgb(0,0,0)"
                       stroke="none"
                       id="tspan293">5</tspan></tspan><tspan
                     class="TextPosition"
                     y="14528"
                     id="tspan295"><tspan
                       fill="rgb(0,0,0)"
                       stroke="none"
                       id="tspan297">X</tspan></tspan><tspan
                     class="TextPosition"
                     y="14738"
                     id="tspan299"><tspan
                       font-size="368px"
                       fill="rgb(0,0,0)"
                       stroke="none"
                       id="tspan301">6</tspan></tspan><tspan
                     class="TextPosition"
                     y="14528"
                     id="tspan303"><tspan
                       fill="rgb(0,0,0)"
                       stroke="none"
                       id="tspan305">...</tspan></tspan></tspan><tspan
                   class="TextParagraph"
                   font-family="Arial, sans-serif"
                   font-size="635px"
                   font-weight="400"
                   id="tspan307"><tspan
                     class="TextPosition"
                     x="2520"
                     y="15391"
                     id="tspan309"><tspan
                       fill="rgb(0,0,0)"
                       stroke="none"
                       id="tspan311">Y: Y</tspan></tspan><tspan
                     class="TextPosition"
                     x="3671"
                     y="15601"
                     id="tspan313"><tspan
                       font-size="368px"
                       fill="rgb(0,0,0)"
                       stroke="none"
                       id="tspan315">1</tspan></tspan><tspan
                     class="TextPosition"
                     x="3874"
                     y="15391"
                     id="tspan317"><tspan
                       fill="rgb(0,0,0)"
                       stroke="none"
                       id="tspan319">Y</tspan></tspan><tspan
                     class="TextPosition"
                     y="15601"
                     id="tspan321"><tspan
                       font-size="368px"
                       fill="rgb(0,0,0)"
                       stroke="none"
                       id="tspan323">2</tspan></tspan><tspan
                     class="TextPosition"
                     y="15391"
                     id="tspan325"><tspan
                       fill="rgb(0,0,0)"
                       stroke="none"
                       id="tspan327">Y</tspan></tspan><tspan
                     class="TextPosition"
                     y="15601"
                     id="tspan329"><tspan
                       font-size="368px"
                       fill="rgb(0,0,0)"
                       stroke="none"
                       id="tspan331">3</tspan></tspan><tspan
                     class="TextPosition"
                     y="15391"
                     id="tspan333"><tspan
                       fill="rgb(0,0,0)"
                       stroke="none"
                       id="tspan335">Y</tspan></tspan><tspan
                     class="TextPosition"
                     y="15601"
                     id="tspan337"><tspan
                       font-size="368px"
                       fill="rgb(0,0,0)"
                       stroke="none"
                       id="tspan339">4</tspan></tspan><tspan
                     class="TextPosition"
                     y="15391"
                     id="tspan341"><tspan
                       fill="rgb(0,0,0)"
                       stroke="none"
                       id="tspan343">Y</tspan></tspan><tspan
                     class="TextPosition"
                     y="15601"
                     id="tspan345"><tspan
                       font-size="368px"
                       fill="rgb(0,0,0)"
                       stroke="none"
                       id="tspan347">5</tspan></tspan><tspan
                     class="TextPosition"
                     y="15391"
                     id="tspan349"><tspan
                       fill="rgb(0,0,0)"
                       stroke="none"
                       id="tspan351">Y</tspan></tspan><tspan
                     class="TextPosition"
                     y="15601"
                     id="tspan353"><tspan
                       font-size="368px"
                       fill="rgb(0,0,0)"
                       stroke="none"
                       id="tspan355">6</tspan></tspan><tspan
                     class="TextPosition"
                     y="15391"
                     id="tspan357"><tspan
                       fill="rgb(0,0,0)"
                       stroke="none"
                       id="tspan359">...</tspan></tspan></tspan></text>
</g></g></g></g></g></g></svg>